<svg viewBox="0 0 24 24" xmlns="http://www.w3.org/2000/svg" class="h-full w-full" fill="#181717" aria-hidden="true"><path d="M12 .5C5.73.5.98 5.24.98 11.5c0 4.85 3.15 8.96 7.51 10.41.55.1.75-.24.75-.53 0-.26-.01-1.12-.02-2.04-3.06.66-3.71-1.3-3.71-1.3-.5-1.26-1.22-1.6-1.22-1.6-1-.68.08-.67.08-.67 1.1.08 1.68 1.13 1.68 1.13.98 1.67 2.57 1.19 3.2.91.1-.71.38-1.19.69-1.46-2.44-.28-5.01-1.22-5.01-5.44 0-1.2.43-2.18 1.13-2.95-.11-.28-.49-1.41.11-2.94 0 0 .92-.29 3.01 1.13.87-.24 1.8-.36 2.72-.36s1.85.12 2.72.36c2.09-1.42 3.01-1.13 3.01-1.13.6 1.53.22 2.66.11 2.94.7.77 1.13 1.75 1.13 2.95 0 4.23-2.58 5.15-5.03 5.42.38.33.73.98.73 1.98 0 1.43-.01 2.58-.01 2.93 0 .29.2.64.75.53 4.36-1.45 7.51-5.56 7.51-10.41C23.02 5.24 18.27.5 12 .5z"/></svg>
