<svg role="img" viewBox="0 0 24 24" xmlns="http://www.w3.org/2000/svg" class="h-full w-full" aria-hidden="true">
  <title>Google</title>
  <path fill="#4285F4" d="M23.49 12.27c0-.68-.06-1.33-.18-1.96H12v3.71h6.43c-.28 1.48-1.12 2.73-2.39 3.58v2.97h3.87c2.26-2.08 3.58-5.14 3.58-8.3z"/>
  <path fill="#34A853" d="M12 24c3.24 0 5.96-1.07 7.95-2.9l-3.87-2.97c-1.08.73-2.47 1.16-4.08 1.16-3.13 0-5.78-2.11-6.73-4.95H1.29v3.11C3.27 21.3 7.31 24 12 24z"/>
  <path fill="#FBBC04" d="M5.27 14.34c-.25-.73-.39-1.52-.39-2.34s.14-1.61.39-2.34V6.55H1.29C.47 8.16 0 10.02 0 12c0 1.98.47 3.84 1.29 5.45l3.98-3.11z"/>
  <path fill="#EA4335" d="M12 4.73c1.77 0 3.36.61 4.61 1.82l3.45-3.45C17.95 1.14 15.24 0 12 0 7.31 0 3.27 2.7 1.29 6.55l3.98 3.11C6.22 6.82 8.87 4.73 12 4.73z"/>
</svg>